<svg width="56" height="57" viewBox="0 0 56 57" fill="none" xmlns="http://www.w3.org/2000/svg">
<path d="M30.0476 21.2758H22.4438V48.777H30.3188V36.177C30.3188 32.8345 30.9488 29.6233 35.0701 29.6233C39.1913 29.6233 39.2001 33.4208 39.2001 36.387V48.777H47.0751V34.7158C47.0751 27.9258 45.6313 21.6608 37.6163 21.6608C34.6588 21.547 31.7976 22.0895 30.2051 24.5045C30.1959 24.5262 30.1792 24.5438 30.158 24.5539C30.1367 24.5641 30.1125 24.5661 30.0899 24.5597C30.0673 24.5532 30.0478 24.5387 30.0352 24.5189C30.0226 24.499 30.0176 24.4752 30.0213 24.452L30.0476 21.2758ZM9.55507 21.2758H17.5001V48.777H9.55507V21.2758ZM13.5101 7.59952C12.5981 7.59607 11.7055 7.86313 10.9453 8.36694C10.185 8.87075 9.59129 9.58868 9.23908 10.4299C8.88688 11.2712 8.79204 12.198 8.96657 13.0932C9.14111 13.9883 9.57716 14.8116 10.2196 15.459C10.862 16.1063 11.682 16.5486 12.5758 16.7299C13.4696 16.9113 14.3971 16.8235 15.2411 16.4776C16.085 16.1318 16.8074 15.5435 17.317 14.7872C17.8265 14.0308 18.1003 13.1403 18.1038 12.2283C18.1084 11.6221 17.993 11.021 17.7642 10.4596C17.5354 9.89818 17.1978 9.38763 16.7708 8.95735C16.3437 8.52707 15.8358 8.18556 15.2761 7.95252C14.7165 7.71947 14.1163 7.5995 13.5101 7.59952Z" stroke="#261F22" stroke-width="2" stroke-linecap="round"/>
</svg>
