<svg width="56" height="57" viewBox="0 0 56 57" fill="none" xmlns="http://www.w3.org/2000/svg">
<path d="M31.2025 31.3996C28.3739 30.1852 26.0008 28.1091 24.4212 25.4671C24.3494 25.335 24.3209 25.1837 24.3398 25.0345C24.3586 24.8854 24.4238 24.7459 24.5262 24.6358L25.8825 23.1571C25.9766 23.057 26.0393 22.9315 26.0626 22.7962C26.0859 22.6608 26.0689 22.5216 26.0137 22.3958L23.8787 18.3271C23.8787 18.3271 22.9337 16.8833 21 18.1258C21 18.1258 15.9162 22.0983 19.1625 27.5583C22.4087 33.0183 25.4625 34.8646 28.21 36.2033C30.5987 37.3671 35.77 38.9158 38.8937 33.2371C38.8937 33.2371 39.9875 31.4871 38.8937 31.0408C38.395 30.8396 35.6737 29.4921 34.5187 28.9321C34.3727 28.8601 34.2065 28.84 34.0475 28.875C33.8885 28.9099 33.7461 28.998 33.6437 29.1246L32.0162 31.1808C31.9218 31.2995 31.7919 31.3849 31.6454 31.4243C31.4989 31.4636 31.3437 31.455 31.2025 31.3996Z" stroke="#261F22" stroke-width="2"/>
<path d="M7.75244 46.9921L11.2524 37.1921C8.89914 32.9332 8.16854 27.9659 9.19589 23.2097C10.2232 18.4536 12.939 14.2307 16.8403 11.3229C20.7417 8.41499 25.5645 7.01907 30.4159 7.39351C35.2673 7.76794 39.8187 9.88738 43.2277 13.3595C46.6366 16.8315 48.6722 21.4211 48.9576 26.2786C49.2429 31.136 47.7588 35.9324 44.7798 39.7797C41.8009 43.6271 37.5289 46.2649 32.7547 47.2048C27.9805 48.1447 23.0275 47.3231 18.8124 44.8921L7.75244 46.9921Z" stroke="#261F22" stroke-width="2" stroke-linecap="round"/>
</svg>
